<svg width="1497" height="853" viewBox="0 0 1497 853" fill="none" xmlns="http://www.w3.org/2000/svg">
<g clip-path="url(#clip0_1_2)">
<path d="M963.26 588.384C965 594.558 972.76 601.055 980.21 604.545C989.53 608.911 1004.18 609.006 1016.59 608.745C1029.67 608.47 1040.87 607.285 1056.79 602.379C1082.79 594.367 1133.38 570.644 1154.99 556.061C1167.39 547.698 1175.18 540.644 1181.2 531.818C1186.35 524.281 1191.14 513.707 1190.72 507.576C1190.45 503.627 1188.55 500.807 1185.43 498.155C1180.62 494.066 1171.69 490.527 1161.31 489.367C1143.82 487.412 1112.99 492.016 1088.95 498.586C1063.15 505.637 1033.04 518.502 1011.81 531.818C994.25 542.837 975.52 558.027 968.35 569.474C964.16 576.154 961.68 582.738 963.26 588.384Z" stroke-opacity="0.7" stroke-linecap="round"/>
<path d="M871.948 599.545C871.449 605.156 871.843 610.41 875.189 615.707C880.432 624.009 893.908 634.268 907.61 639.949C925.57 647.393 953.17 649.972 976.39 649.924C1000.21 649.875 1024.22 645.572 1048.75 639.124C1075.65 632.051 1104.09 620.594 1130.93 607.626C1158.85 594.136 1188.92 576.477 1212.91 559.141C1234.01 543.889 1256.73 527.642 1268.46 510.657C1277.43 497.67 1285.29 481.213 1283.46 470.253C1282 461.44 1273.52 454.076 1265.83 448.677C1257.33 442.704 1245.67 439.615 1233.67 437.341C1219.4 434.636 1202.6 434.438 1185.43 435.619C1165.46 436.992 1146.29 439.775 1121.11 446.859C1082.7 457.665 1016.99 483.707 979.77 502.576C953.5 515.896 933.35 528.801 915.73 542.98C901.27 554.622 887.08 568.31 879.905 579.344C875.225 586.54 872.52 593.106 871.948 599.545Z" stroke-opacity="0.7" stroke-linecap="round"/>
<path d="M800.401 620.707C800.65 628.676 803.353 637.375 809.809 644.949C819.824 656.699 842.783 669.182 863.824 676.542C888.969 685.337 922.78 689.24 952.27 689.344C981.74 689.448 1010.49 685.109 1040.71 677.179C1074.62 668.282 1110.03 653.304 1145.23 635.854C1184.31 616.48 1230.43 587.865 1263.78 564.141C1290.46 545.17 1317.83 523.426 1331.98 507.576C1340.08 498.512 1344.91 491.798 1347.85 483.333C1350.54 475.575 1352.53 467.228 1350.01 459.091C1346.7 448.413 1334.94 435.103 1323.33 426.768C1310.27 417.401 1291.19 411.727 1273.87 407.907C1256 403.963 1237.48 403.086 1217.59 403.965C1194.93 404.968 1171.25 409.063 1145.23 415.52C1113.34 423.435 1075.21 437.147 1041.01 451.01C1006.29 465.078 971.04 481.646 938.51 499.495C907.02 516.77 871.951 537.187 848.622 556.061C831.251 570.114 815.153 585.555 807.543 598.252C802.728 606.284 800.165 613.121 800.401 620.707Z" stroke-opacity="0.7" stroke-linecap="round"/>
<path d="M730.515 636.869C731.581 645.057 734.864 653.147 742.401 661.111C755.687 675.15 788.114 692.095 815.583 702.138C846.523 713.449 885.149 720.662 920.11 722.246C954.83 723.819 989.16 720.44 1024.63 711.812C1064.05 702.222 1102.27 685.476 1145.23 663.957C1199.38 636.835 1276.23 587.533 1320.84 556.061C1350.36 535.239 1376.92 515.466 1391.12 499.495C1399.12 490.499 1403.61 483.693 1406.34 475.253C1408.85 467.477 1410.47 459.596 1407.88 451.01C1404.13 438.598 1390.9 421.926 1377.16 410.606C1360.98 397.284 1336.42 386.298 1314.07 379.566C1291.32 372.708 1265.83 370.171 1241.71 370.247C1217.59 370.323 1196.17 373.583 1169.35 380.028C1133.87 388.554 1091.25 404.681 1048.75 422.327C998.65 443.124 936.13 473.745 888.862 499.495C849.338 521.024 810.255 542.264 782.925 564.141C762.593 580.416 742.741 599.089 735.181 613.51C730.728 622.002 729.515 629.177 730.515 636.869Z" stroke-opacity="0.7" stroke-linecap="round"/>
<path d="M656.523 644.949C656.001 653.517 649.438 680 672.661 694C758.6 745.808 773.666 734.871 861.5 758.5C977 789.572 1122.84 703.5 1174.11 672.757C1247.36 632.075 1383.07 548.307 1425.28 515.657C1439.3 504.813 1444.62 500.085 1451.3 491.414C1457.17 483.789 1462.47 475.519 1464.28 467.172C1465.98 459.326 1465.17 450.721 1462.71 442.929C1460.06 434.511 1455.45 427.257 1448 418.687C1436.36 405.308 1413.31 386.857 1394.48 374.969C1376.61 363.687 1357.36 354.683 1338.2 348.379C1319.8 342.327 1301.39 338.825 1281.92 337.297C1261.28 335.678 1242.09 335.749 1217.59 339.73C1183.36 345.292 1143.79 356.919 1096.99 374.977C1026.51 402.173 912.37 461.165 840.661 499.495C786.929 528.214 731.979 557.842 702.591 580.303C686.803 592.369 677.428 600.985 669.63 612.626C662.851 622.745 657.139 634.851 656.523 644.949Z" stroke-opacity="0.7" stroke-linecap="round"/>
<path d="M1496.5 348.535C1496.5 348.535 1450.93 301.502 1425.94 287.273C1403.71 274.617 1381.86 267.707 1355.78 264C1324.75 259.59 1287.05 262.713 1251.25 267.964C1212.19 273.694 1165.32 287.134 1130.65 299.194C1103.02 308.805 1087.8 316.521 1058.29 331.172C1009.01 355.632 935.07 402.082 865.324 437.929C785.508 478.951 631 544.5 605 566.879C573.5 589.5 549 616.379 540 634.748C531 653.117 510.332 719.379 568.388 759.879C626.444 800.379 984 913.5 1114 807.5C1114 807.5 1174 760.5 1189.71 746C1205.42 731.5 1222.23 710.519 1242.17 693.434C1264.84 674.014 1287.8 656.845 1319.71 636.869C1365.6 608.14 1495 543.728 1495 543.728" stroke-opacity="0.7" stroke-linecap="round"/>
<path d="M1495 236.526C1495 236.526 1488.08 220.91 1482.92 216.02C1478.42 211.754 1474.29 209.388 1466.84 207.666C1452.81 204.422 1428.91 206.624 1402.52 209.258C1359.43 213.557 1286.6 226.148 1233.67 238.965C1185.31 250.676 1134.9 266.421 1096.99 281.397C1068.57 292.622 1053.85 300.673 1024.63 316.475C976.92 342.28 908.69 391.891 840.711 426.768C762.316 466.988 635.796 509.795 578.904 539.899C549.651 555.378 539.524 563.066 515.239 580.303C479.824 605.44 429.178 655.978 389.452 679.762C358.646 698.206 332.954 709.619 301.01 718.191C266.384 727.484 223.69 731.462 188.447 731.135C157.172 730.844 125.257 728.762 100.005 719.296C78.047 711.063 58.829 698.858 43.724 682.076C27.456 664.001 14.679 636.035 7.64001 612.626C1.22501 591.292 0.264007 568.774 0.824007 547.98C1.34901 528.459 3.26101 515.042 9.88601 491.414C22.016 448.153 66.523 340.623 82.526 313.636C87.796 304.749 89.334 301.779 95.664 297.475C104.246 291.639 116.222 288.244 132.166 285.939C160.467 281.847 217.717 289.768 252.769 288.222C279.996 287.021 294.504 286.575 325.131 280.444C381.114 269.237 498.078 234.057 558.296 211.356C598.107 196.349 622.32 187.703 654.779 166.765C694.532 141.123 738.859 86.718 775.382 62.505C801.364 45.28 821.229 35.673 847.744 26.833C876.992 17.082 909.61 12.931 944.23 8.71502C983.88 3.88602 1028.71 2.17202 1072.87 1.40902C1119.68 0.600018 1171.63 1.34302 1217.59 4.62002C1259.7 7.62202 1303.58 12.295 1338.2 19.18C1365.07 24.525 1388.9 30.386 1408.71 38.889C1424.62 45.721 1438.26 53.191 1449.3 63.131C1459.5 72.318 1466.48 82.421 1473.5 95.455C1482.31 111.781 1495 158.5 1495 158.5" stroke-opacity="0.7" stroke-linecap="round"/>
<path d="M61.831 499.495C66.992 487.711 72.089 478.517 81.991 467.172C96.881 450.111 117.946 429.232 148.246 412.116C196.818 384.68 280.682 368.928 357.291 339.333C453.556 302.144 613.364 236.148 678.899 202.498C709.315 186.88 720.432 180.109 743.221 163.375C772.875 141.6 810.023 98.531 839.031 79.293C859.469 65.739 872.247 59.337 895.985 51.72C931.13 40.443 984.52 32.054 1032.67 28.241C1085.8 24.034 1150.61 24.645 1201.51 30.279C1244.37 35.024 1293.18 45.488 1318.62 55.051C1332 60.077 1339.39 64.315 1347.48 71.212C1355.3 77.881 1363.38 86.824 1366.67 95.455C1369.58 103.103 1369.48 112.59 1368.08 119.697C1366.87 125.803 1364.93 130.14 1360.32 135.859C1352.42 145.66 1340.18 156.304 1318.75 168.182C1267.21 196.755 1117.26 230.688 1032.67 273.06C958.03 310.445 908.18 364.051 833.918 402.525C749.672 446.174 632.909 472.664 550.256 515.4C480.021 551.715 411.735 609.568 365.332 635.416C338.975 650.097 325.186 658.007 301.01 665.758C272.621 674.858 231.244 681.929 204.528 683.283C185.76 684.234 171.471 682.474 156.286 679.492C142.105 676.708 128.215 672.646 116.085 666.643C104.594 660.956 93.942 653.819 85.031 644.949C75.924 635.886 67.795 623.849 62.222 612.626C57.062 602.236 53.926 591.824 51.962 580.303C49.817 567.725 49.141 553.248 50.735 539.899C52.358 526.308 56.418 511.853 61.831 499.495Z" stroke-opacity="0.7" stroke-linecap="round"/>
<path d="M132.166 505.384C142.723 490.751 155.865 479.793 178.513 467.172C222.127 442.866 324.846 425.295 389.452 395.55C449.456 367.923 494.865 326.743 554.694 297.475C619.931 265.561 722.196 236.431 767.342 213.946C789.821 202.75 798.215 197.446 815.637 184.343C839.68 166.262 871.059 129.139 895.326 111.616C912.82 98.985 925.07 91.767 944.23 84.198C968.24 74.71 999.38 67.232 1029.75 63.131C1063.29 58.601 1104.09 57.69 1137.19 60.237C1166.06 62.457 1198.58 68.657 1217.59 74.908C1228.79 78.591 1236.41 82.067 1243.08 87.374C1248.78 91.917 1254.65 97.187 1256.16 103.535C1257.81 110.469 1255.93 120.026 1250.9 127.778C1243.45 139.275 1228.64 148.019 1206.94 160.101C1159.04 186.766 1031.21 217.945 960.31 259.204C897.966 295.48 844.023 360.229 799.503 387.105C771.888 403.775 758.162 407.44 727.141 418.927C674.586 438.388 580.087 453.698 510.055 484.882C436.945 517.438 351.073 590.822 298.342 612.626C269.932 624.373 250.769 628.173 228.648 629.776C209.013 631.198 189.097 630.267 172.367 624.321C156.581 618.711 139.874 609.157 130.431 596.465C120.958 583.732 115.132 563.523 115.707 547.98C116.252 533.224 122.961 518.142 132.166 505.384Z" stroke-opacity="0.7" stroke-linecap="round"/>
<path d="M616.067 329.798C632.714 317.44 656.188 308.875 678.899 302.873C703.608 296.343 742.82 292.468 759.302 293.841C766.794 294.464 770.914 295.33 775.382 298.43C780.131 301.725 785.441 308.211 786.604 313.636C787.692 318.712 785.87 324.233 783.101 329.798C779.25 337.535 772.283 346.421 762.264 354.04C746.984 365.66 719.01 378.967 694.98 385.68C669.922 392.679 633.694 396.036 614.578 394.17C603.647 393.103 594.721 391.157 589.324 386.364C584.909 382.443 581.258 376.473 582.143 370.202C583.671 359.371 601.443 340.655 616.067 329.798Z" stroke-opacity="0.7" stroke-linecap="round"/>
<path d="M1495 405.333C1495 405.333 1432.72 350.197 1402.52 333.222C1377.98 319.434 1356.98 310.649 1330.16 305.835C1298.97 300.24 1260.78 301.515 1225.63 306.538C1188.45 311.853 1161.1 319.988 1113.07 338.57C1018.61 375.111 792.383 491.528 707.75 539.899C667.254 563.045 642.927 576.456 620.93 596.465C603.922 611.936 589.021 628.525 582.358 644.949C576.963 658.245 574.863 673.251 578.352 685.354C581.855 697.504 592.104 708.304 603.447 717.677C617.462 729.258 659.131 746 659.131 746C699.087 769.5 777.253 802.739 911.5 811C976.5 815 1039.5 801 1125.24 746C1125.24 746 1232.38 667.22 1291.32 628.788C1355.04 587.233 1495 506.362 1495 506.362" stroke-opacity="0.7" stroke-linecap="round"/>
</g>
<defs>
<clipPath id="clip0_1_2">
<rect width="1497" height="853" fill="white"/>
</clipPath>
</defs>
</svg>
