<svg width="564" height="539" viewBox="0 0 564 539" fill="none" xmlns="http://www.w3.org/2000/svg">
<path d="M341.67 94.5427L478.305 213.45L387.503 430.077L151.418 462.507L77.0472 293.874L118.557 75.5176L341.67 94.5427Z" fill="#193858"/>
<path d="M118.557 75.5176L341.67 94.5427L478.305 213.45M118.557 75.5176L77.0472 293.874L151.418 462.507M118.557 75.5176L217.574 212.153M478.305 213.45L387.503 430.077L151.418 462.507M478.305 213.45L217.574 212.153M151.418 462.507L217.574 212.153" stroke="#2D61CE" stroke-linecap="round"/>
<path d="M509.117 245.5L516.046 230.017L515.533 228.669C515.113 227.634 514.664 226.975 514.186 226.691C513.707 226.408 513.067 226.267 512.267 226.267C511.993 226.267 511.725 226.286 511.461 226.325C511.197 226.364 510.968 226.408 510.772 226.457V222.766C510.958 222.717 511.192 222.678 511.476 222.648C511.769 222.609 512.071 222.58 512.384 222.561C512.696 222.531 512.97 222.517 513.204 222.517C514.474 222.517 515.514 222.722 516.324 223.132C517.135 223.542 517.799 224.143 518.316 224.934C518.844 225.715 519.308 226.662 519.708 227.775L523.824 239.084C524.127 239.914 524.41 240.544 524.674 240.974C524.938 241.394 525.201 241.677 525.465 241.823C525.729 241.97 526.002 242.043 526.285 242.043C526.432 242.043 526.593 242.028 526.769 241.999C526.944 241.97 527.12 241.936 527.296 241.896V245.354C527.14 245.432 526.905 245.505 526.593 245.573C526.28 245.642 525.953 245.695 525.611 245.734C525.27 245.773 524.972 245.793 524.718 245.793C523.907 245.793 523.229 245.656 522.682 245.383C522.145 245.109 521.7 244.724 521.349 244.226C520.997 243.718 520.699 243.132 520.455 242.468L519.049 238.483C518.932 238.161 518.819 237.844 518.712 237.531C518.614 237.209 518.517 236.901 518.419 236.608C518.321 236.306 518.233 236.022 518.155 235.759C518.087 235.485 518.023 235.241 517.965 235.026H517.877C517.73 235.554 517.555 236.125 517.35 236.74C517.154 237.355 516.959 237.907 516.764 238.396L513.746 245.5H509.117ZM536.993 224.084C539.757 224.084 541.773 224.68 543.043 225.871C544.312 227.053 544.947 228.684 544.947 230.764C544.947 231.701 544.806 232.6 544.522 233.459C544.239 234.309 543.775 235.065 543.131 235.729C542.496 236.394 541.646 236.921 540.582 237.312C539.518 237.692 538.204 237.883 536.642 237.883H534.693V245.5H530.152V224.084H536.993ZM536.759 227.805H534.693V234.162H536.188C537.037 234.162 537.774 234.05 538.399 233.825C539.024 233.601 539.508 233.249 539.85 232.771C540.191 232.292 540.362 231.677 540.362 230.925C540.362 229.87 540.069 229.089 539.483 228.581C538.897 228.063 537.989 227.805 536.759 227.805ZM562.467 245.5H547.496V242.351L552.872 236.916C553.956 235.803 554.825 234.875 555.479 234.133C556.144 233.381 556.622 232.697 556.915 232.082C557.218 231.467 557.369 230.808 557.369 230.104C557.369 229.255 557.13 228.62 556.651 228.2C556.183 227.771 555.553 227.556 554.762 227.556C553.932 227.556 553.126 227.746 552.345 228.127C551.563 228.508 550.748 229.05 549.898 229.753L547.438 226.838C548.053 226.311 548.702 225.812 549.386 225.344C550.079 224.875 550.88 224.499 551.788 224.216C552.706 223.923 553.805 223.776 555.084 223.776C556.49 223.776 557.696 224.03 558.702 224.538C559.718 225.046 560.499 225.739 561.046 226.618C561.593 227.487 561.866 228.474 561.866 229.577C561.866 230.759 561.632 231.838 561.163 232.814C560.694 233.791 560.011 234.758 559.112 235.715C558.224 236.672 557.149 237.731 555.89 238.894L553.136 241.486V241.691H562.467V245.5Z" class="svg-white"/>
<path d="M170.117 228.718L177.046 213.234L176.533 211.887C176.113 210.852 175.664 210.192 175.186 209.909C174.707 209.626 174.067 209.484 173.267 209.484C172.993 209.484 172.725 209.504 172.461 209.543C172.197 209.582 171.968 209.626 171.772 209.675V205.983C171.958 205.935 172.192 205.896 172.476 205.866C172.769 205.827 173.071 205.798 173.384 205.778C173.696 205.749 173.97 205.734 174.204 205.734C175.474 205.734 176.514 205.939 177.324 206.35C178.135 206.76 178.799 207.36 179.316 208.151C179.844 208.933 180.308 209.88 180.708 210.993L184.824 222.302C185.127 223.132 185.41 223.762 185.674 224.191C185.938 224.611 186.201 224.895 186.465 225.041C186.729 225.188 187.002 225.261 187.285 225.261C187.432 225.261 187.593 225.246 187.769 225.217C187.944 225.188 188.12 225.153 188.296 225.114V228.571C188.14 228.649 187.905 228.723 187.593 228.791C187.28 228.859 186.953 228.913 186.611 228.952C186.27 228.991 185.972 229.011 185.718 229.011C184.907 229.011 184.229 228.874 183.682 228.601C183.145 228.327 182.7 227.941 182.349 227.443C181.997 226.936 181.699 226.35 181.455 225.686L180.049 221.701C179.932 221.379 179.819 221.062 179.712 220.749C179.614 220.427 179.517 220.119 179.419 219.826C179.321 219.523 179.233 219.24 179.155 218.977C179.087 218.703 179.023 218.459 178.965 218.244H178.877C178.73 218.771 178.555 219.343 178.35 219.958C178.154 220.573 177.959 221.125 177.764 221.613L174.746 228.718H170.117ZM204.629 228.718H189.658V225.568L195.034 220.134C196.118 219.021 196.987 218.093 197.642 217.351C198.306 216.599 198.784 215.915 199.077 215.3C199.38 214.685 199.531 214.025 199.531 213.322C199.531 212.473 199.292 211.838 198.813 211.418C198.345 210.988 197.715 210.773 196.924 210.773C196.094 210.773 195.288 210.964 194.507 211.345C193.726 211.726 192.91 212.268 192.061 212.971L189.6 210.056C190.215 209.528 190.864 209.03 191.548 208.562C192.241 208.093 193.042 207.717 193.95 207.434C194.868 207.141 195.967 206.994 197.246 206.994C198.652 206.994 199.858 207.248 200.864 207.756C201.88 208.264 202.661 208.957 203.208 209.836C203.755 210.705 204.028 211.691 204.028 212.795C204.028 213.977 203.794 215.056 203.325 216.032C202.856 217.009 202.173 217.976 201.274 218.933C200.386 219.89 199.312 220.949 198.052 222.111L195.298 224.704V224.909H204.629V228.718Z" class="svg-white"/>
<path d="M407.117 480.5L414.046 465.017L413.533 463.669C413.113 462.634 412.664 461.975 412.186 461.691C411.707 461.408 411.067 461.267 410.267 461.267C409.993 461.267 409.725 461.286 409.461 461.325C409.197 461.364 408.968 461.408 408.772 461.457V457.766C408.958 457.717 409.192 457.678 409.476 457.648C409.769 457.609 410.071 457.58 410.384 457.561C410.696 457.531 410.97 457.517 411.204 457.517C412.474 457.517 413.514 457.722 414.324 458.132C415.135 458.542 415.799 459.143 416.316 459.934C416.844 460.715 417.308 461.662 417.708 462.775L421.824 474.084C422.127 474.914 422.41 475.544 422.674 475.974C422.938 476.394 423.201 476.677 423.465 476.823C423.729 476.97 424.002 477.043 424.285 477.043C424.432 477.043 424.593 477.028 424.769 476.999C424.944 476.97 425.12 476.936 425.296 476.896V480.354C425.14 480.432 424.905 480.505 424.593 480.573C424.28 480.642 423.953 480.695 423.611 480.734C423.27 480.773 422.972 480.793 422.718 480.793C421.907 480.793 421.229 480.656 420.682 480.383C420.145 480.109 419.7 479.724 419.349 479.226C418.997 478.718 418.699 478.132 418.455 477.468L417.049 473.483C416.932 473.161 416.819 472.844 416.712 472.531C416.614 472.209 416.517 471.901 416.419 471.608C416.321 471.306 416.233 471.022 416.155 470.759C416.087 470.485 416.023 470.241 415.965 470.026H415.877C415.73 470.554 415.555 471.125 415.35 471.74C415.154 472.355 414.959 472.907 414.764 473.396L411.746 480.5H407.117ZM434.993 459.084C437.757 459.084 439.773 459.68 441.043 460.871C442.312 462.053 442.947 463.684 442.947 465.764C442.947 466.701 442.806 467.6 442.522 468.459C442.239 469.309 441.775 470.065 441.131 470.729C440.496 471.394 439.646 471.921 438.582 472.312C437.518 472.692 436.204 472.883 434.642 472.883H432.693V480.5H428.152V459.084H434.993ZM434.759 462.805H432.693V469.162H434.188C435.037 469.162 435.774 469.05 436.399 468.825C437.024 468.601 437.508 468.249 437.85 467.771C438.191 467.292 438.362 466.677 438.362 465.925C438.362 464.87 438.069 464.089 437.483 463.581C436.897 463.063 435.989 462.805 434.759 462.805Z" class="svg-white"/>
<path d="M110.117 515.718L117.046 500.234L116.533 498.887C116.113 497.852 115.664 497.192 115.186 496.909C114.707 496.626 114.067 496.484 113.267 496.484C112.993 496.484 112.725 496.504 112.461 496.543C112.197 496.582 111.968 496.626 111.772 496.675V492.983C111.958 492.935 112.192 492.896 112.476 492.866C112.769 492.827 113.071 492.798 113.384 492.778C113.696 492.749 113.97 492.734 114.204 492.734C115.474 492.734 116.514 492.939 117.324 493.35C118.135 493.76 118.799 494.36 119.316 495.151C119.844 495.933 120.308 496.88 120.708 497.993L124.824 509.302C125.127 510.132 125.41 510.762 125.674 511.191C125.938 511.611 126.201 511.895 126.465 512.041C126.729 512.188 127.002 512.261 127.285 512.261C127.432 512.261 127.593 512.246 127.769 512.217C127.944 512.188 128.12 512.153 128.296 512.114V515.571C128.14 515.649 127.905 515.723 127.593 515.791C127.28 515.859 126.953 515.913 126.611 515.952C126.27 515.991 125.972 516.011 125.718 516.011C124.907 516.011 124.229 515.874 123.682 515.601C123.145 515.327 122.7 514.941 122.349 514.443C121.997 513.936 121.699 513.35 121.455 512.686L120.049 508.701C119.932 508.379 119.819 508.062 119.712 507.749C119.614 507.427 119.517 507.119 119.419 506.826C119.321 506.523 119.233 506.24 119.155 505.977C119.087 505.703 119.023 505.459 118.965 505.244H118.877C118.73 505.771 118.555 506.343 118.35 506.958C118.154 507.573 117.959 508.125 117.764 508.613L114.746 515.718H110.117ZM147.567 509.418C147.767 508.898 147.987 508.418 148.227 507.978C148.467 507.518 148.737 507.088 149.037 506.688H132.957V504.228H149.037C148.757 503.828 148.497 503.408 148.257 502.968C148.017 502.508 147.797 502.018 147.597 501.498H149.877C151.117 502.958 152.477 504.068 153.957 504.828V506.118C152.477 506.838 151.117 507.938 149.877 509.418H147.567Z" class="svg-white"/>
<path d="M7.11719 307.718L14.0459 292.234L13.5332 290.887C13.1133 289.852 12.6641 289.192 12.1855 288.909C11.707 288.626 11.0674 288.484 10.2666 288.484C9.99316 288.484 9.72461 288.504 9.46094 288.543C9.19727 288.582 8.96777 288.626 8.77246 288.675V284.983C8.95801 284.935 9.19238 284.896 9.47559 284.866C9.76855 284.827 10.0713 284.798 10.3838 284.778C10.6963 284.749 10.9697 284.734 11.2041 284.734C12.4736 284.734 13.5137 284.939 14.3242 285.35C15.1348 285.76 15.7988 286.36 16.3164 287.151C16.8438 287.933 17.3076 288.88 17.708 289.993L21.8242 301.302C22.127 302.132 22.4102 302.762 22.6738 303.191C22.9375 303.611 23.2012 303.895 23.4648 304.041C23.7285 304.188 24.002 304.261 24.2852 304.261C24.4316 304.261 24.5928 304.246 24.7686 304.217C24.9443 304.188 25.1201 304.153 25.2959 304.114V307.571C25.1396 307.649 24.9053 307.723 24.5928 307.791C24.2803 307.859 23.9531 307.913 23.6113 307.952C23.2695 307.991 22.9717 308.011 22.7178 308.011C21.9072 308.011 21.2285 307.874 20.6816 307.601C20.1445 307.327 19.7002 306.941 19.3486 306.443C18.9971 305.936 18.6992 305.35 18.4551 304.686L17.0488 300.701C16.9316 300.379 16.8193 300.062 16.7119 299.749C16.6143 299.427 16.5166 299.119 16.4189 298.826C16.3213 298.523 16.2334 298.24 16.1553 297.977C16.0869 297.703 16.0234 297.459 15.9648 297.244H15.877C15.7305 297.771 15.5547 298.343 15.3496 298.958C15.1543 299.573 14.959 300.125 14.7637 300.613L11.7461 307.718H7.11719ZM48.1035 291.341C48.4844 292.298 48.7969 293.216 49.041 294.095C49.2852 294.974 49.4658 295.872 49.583 296.79C49.7002 297.698 49.7588 298.689 49.7588 299.764C49.7588 301.375 49.5098 302.801 49.0117 304.041C48.5234 305.281 47.791 306.253 46.8145 306.956C45.8379 307.659 44.6172 308.011 43.1523 308.011C41.8828 308.011 40.877 307.737 40.1348 307.19C39.4023 306.634 38.8506 305.882 38.4795 304.935H38.333C37.9521 305.882 37.3955 306.634 36.6631 307.19C35.9307 307.737 34.9248 308.011 33.6455 308.011C32.1904 308.011 30.9697 307.659 29.9834 306.956C29.0068 306.253 28.2744 305.281 27.7861 304.041C27.2979 302.801 27.0537 301.375 27.0537 299.764C27.0537 298.689 27.1123 297.698 27.2295 296.79C27.3467 295.872 27.5225 294.974 27.7568 294.095C28.001 293.216 28.3135 292.298 28.6943 291.341H32.9863C32.3613 292.659 31.8975 293.997 31.5947 295.354C31.3018 296.712 31.1553 298.133 31.1553 299.617C31.1553 301.072 31.3799 302.259 31.8291 303.177C32.2783 304.085 33.0059 304.539 34.0117 304.539C34.6172 304.539 35.0859 304.397 35.418 304.114C35.7598 303.831 35.999 303.416 36.1357 302.869C36.2725 302.322 36.3408 301.658 36.3408 300.877V296.556H40.457V300.877C40.457 301.658 40.5254 302.322 40.6621 302.869C40.8086 303.416 41.0527 303.831 41.3945 304.114C41.7363 304.397 42.2051 304.539 42.8008 304.539C43.4746 304.539 44.0166 304.334 44.4268 303.924C44.8467 303.504 45.1543 302.928 45.3496 302.195C45.5449 301.463 45.6426 300.623 45.6426 299.676C45.6426 298.201 45.4961 296.775 45.2031 295.398C44.9102 294.012 44.4463 292.659 43.8115 291.341H48.1035Z" class="svg-white"/>
<path d="M25.457 309.549H51.3408V310.281H25.457V309.549Z" class="svg-white"/>
<path d="M355.117 67.7178L362.046 52.2344L361.533 50.8867C361.113 49.8516 360.664 49.1924 360.186 48.9092C359.707 48.626 359.067 48.4844 358.267 48.4844C357.993 48.4844 357.725 48.5039 357.461 48.543C357.197 48.582 356.968 48.626 356.772 48.6748V44.9834C356.958 44.9346 357.192 44.8955 357.476 44.8662C357.769 44.8271 358.071 44.7979 358.384 44.7783C358.696 44.749 358.97 44.7344 359.204 44.7344C360.474 44.7344 361.514 44.9395 362.324 45.3496C363.135 45.7598 363.799 46.3604 364.316 47.1514C364.844 47.9326 365.308 48.8799 365.708 49.9932L369.824 61.3018C370.127 62.1318 370.41 62.7617 370.674 63.1914C370.938 63.6113 371.201 63.8945 371.465 64.041C371.729 64.1875 372.002 64.2607 372.285 64.2607C372.432 64.2607 372.593 64.2461 372.769 64.2168C372.944 64.1875 373.12 64.1533 373.296 64.1143V67.5713C373.14 67.6494 372.905 67.7227 372.593 67.791C372.28 67.8594 371.953 67.9131 371.611 67.9521C371.27 67.9912 370.972 68.0107 370.718 68.0107C369.907 68.0107 369.229 67.874 368.682 67.6006C368.145 67.3271 367.7 66.9414 367.349 66.4434C366.997 65.9355 366.699 65.3496 366.455 64.6855L365.049 60.7012C364.932 60.3789 364.819 60.0615 364.712 59.749C364.614 59.4268 364.517 59.1191 364.419 58.8262C364.321 58.5234 364.233 58.2402 364.155 57.9766C364.087 57.7031 364.023 57.459 363.965 57.2441H363.877C363.73 57.7715 363.555 58.3428 363.35 58.958C363.154 59.5732 362.959 60.125 362.764 60.6133L359.746 67.7178H355.117ZM385.249 49.7734C384.38 49.7734 383.608 49.9443 382.935 50.2861C382.271 50.6182 381.709 51.1016 381.25 51.7363C380.801 52.3711 380.459 53.1377 380.225 54.0361C379.99 54.9346 379.873 55.9453 379.873 57.0684C379.873 58.582 380.059 59.876 380.43 60.9502C380.811 62.0146 381.396 62.8301 382.188 63.3965C382.979 63.9531 383.999 64.2314 385.249 64.2314C386.118 64.2314 386.987 64.1338 387.856 63.9385C388.735 63.7432 389.688 63.4648 390.713 63.1035V66.9121C389.766 67.3027 388.833 67.5811 387.915 67.7471C386.997 67.9229 385.967 68.0107 384.824 68.0107C382.617 68.0107 380.801 67.5566 379.375 66.6484C377.959 65.7305 376.909 64.4512 376.226 62.8105C375.542 61.1602 375.2 59.2363 375.2 57.0391C375.2 55.418 375.42 53.9336 375.859 52.5859C376.299 51.2383 376.943 50.0713 377.793 49.085C378.643 48.0986 379.692 47.3369 380.942 46.7998C382.192 46.2627 383.628 45.9941 385.249 45.9941C386.313 45.9941 387.378 46.1309 388.442 46.4043C389.517 46.668 390.542 47.0342 391.519 47.5029L390.054 51.1943C389.253 50.8135 388.447 50.4814 387.637 50.1982C386.826 49.915 386.03 49.7734 385.249 49.7734Z" class="svg-white"/>
<path d="M45.1172 64.2822L52.0459 48.7988L51.5332 47.4512C51.1133 46.416 50.6641 45.7568 50.1855 45.4736C49.707 45.1904 49.0674 45.0488 48.2666 45.0488C47.9932 45.0488 47.7246 45.0684 47.4609 45.1074C47.1973 45.1465 46.9678 45.1904 46.7725 45.2393V41.5479C46.958 41.499 47.1924 41.46 47.4756 41.4307C47.7686 41.3916 48.0713 41.3623 48.3838 41.3428C48.6963 41.3135 48.9697 41.2988 49.2041 41.2988C50.4736 41.2988 51.5137 41.5039 52.3242 41.9141C53.1348 42.3242 53.7988 42.9248 54.3164 43.7158C54.8438 44.4971 55.3076 45.4443 55.708 46.5576L59.8242 57.8662C60.127 58.6963 60.4102 59.3262 60.6738 59.7559C60.9375 60.1758 61.2012 60.459 61.4648 60.6055C61.7285 60.752 62.002 60.8252 62.2852 60.8252C62.4316 60.8252 62.5928 60.8105 62.7686 60.7812C62.9443 60.752 63.1201 60.7178 63.2959 60.6787V64.1357C63.1396 64.2139 62.9053 64.2871 62.5928 64.3555C62.2803 64.4238 61.9531 64.4775 61.6113 64.5166C61.2695 64.5557 60.9717 64.5752 60.7178 64.5752C59.9072 64.5752 59.2285 64.4385 58.6816 64.165C58.1445 63.8916 57.7002 63.5059 57.3486 63.0078C56.9971 62.5 56.6992 61.9141 56.4551 61.25L55.0488 57.2656C54.9316 56.9434 54.8193 56.626 54.7119 56.3135C54.6143 55.9912 54.5166 55.6836 54.4189 55.3906C54.3213 55.0879 54.2334 54.8047 54.1553 54.541C54.0869 54.2676 54.0234 54.0234 53.9648 53.8086H53.877C53.7305 54.3359 53.5547 54.9072 53.3496 55.5225C53.1543 56.1377 52.959 56.6895 52.7637 57.1777L49.7461 64.2822H45.1172ZM86.1035 47.9053C86.4844 48.8623 86.7969 49.7803 87.041 50.6592C87.2852 51.5381 87.4658 52.4365 87.583 53.3545C87.7002 54.2627 87.7588 55.2539 87.7588 56.3281C87.7588 57.9395 87.5098 59.3652 87.0117 60.6055C86.5234 61.8457 85.791 62.8174 84.8145 63.5205C83.8379 64.2236 82.6172 64.5752 81.1523 64.5752C79.8828 64.5752 78.877 64.3018 78.1348 63.7549C77.4023 63.1982 76.8506 62.4463 76.4795 61.499H76.333C75.9521 62.4463 75.3955 63.1982 74.6631 63.7549C73.9307 64.3018 72.9248 64.5752 71.6455 64.5752C70.1904 64.5752 68.9697 64.2236 67.9834 63.5205C67.0068 62.8174 66.2744 61.8457 65.7861 60.6055C65.2979 59.3652 65.0537 57.9395 65.0537 56.3281C65.0537 55.2539 65.1123 54.2627 65.2295 53.3545C65.3467 52.4365 65.5225 51.5381 65.7568 50.6592C66.001 49.7803 66.3135 48.8623 66.6943 47.9053H70.9863C70.3613 49.2236 69.8975 50.5615 69.5947 51.9189C69.3018 53.2764 69.1553 54.6973 69.1553 56.1816C69.1553 57.6367 69.3799 58.8232 69.8291 59.7412C70.2783 60.6494 71.0059 61.1035 72.0117 61.1035C72.6172 61.1035 73.0859 60.9619 73.418 60.6787C73.7598 60.3955 73.999 59.9805 74.1357 59.4336C74.2725 58.8867 74.3408 58.2227 74.3408 57.4414V53.1201H78.457V57.4414C78.457 58.2227 78.5254 58.8867 78.6621 59.4336C78.8086 59.9805 79.0527 60.3955 79.3945 60.6787C79.7363 60.9619 80.2051 61.1035 80.8008 61.1035C81.4746 61.1035 82.0166 60.8984 82.4268 60.4883C82.8467 60.0684 83.1543 59.4922 83.3496 58.7598C83.5449 58.0273 83.6426 57.1875 83.6426 56.2402C83.6426 54.7656 83.4961 53.3398 83.2031 51.9629C82.9102 50.5762 82.4463 49.2236 81.8115 47.9053H86.1035Z" class="svg-white"/>
<path d="M341.67 94.5427L478.305 213.45L387.503 430.077L151.418 462.507L77.0472 293.874L118.557 75.5176L341.67 94.5427Z" stroke="#2D61CE" stroke-width="10" stroke-linecap="round"/>
<mask id="mask0_1010_2989" style="mask-type:alpha" maskUnits="userSpaceOnUse" x="77" y="75" width="402" height="388">
<path d="M341.67 94.5437L478.305 213.451L387.503 430.078L151.419 462.508L77.0475 293.875L118.557 75.5186L341.67 94.5437Z" fill="#D9D9D9"/>
</mask>
<g mask="url(#mask0_1010_2989)">
<path d="M75.5153 131.931C75.5153 142.304 78.1086 147.491 83.2952 147.491C78.1086 147.491 75.5153 152.677 75.5153 163.05C75.5153 152.677 72.922 147.491 67.7354 147.491C72.922 147.491 75.5153 142.304 75.5153 131.931Z" class="svg-white"/>
<path d="M329 274C324.333 274 322 276.5 322 281.5C322 276.5 319.667 274 315 274C319.667 274 322 271.5 322 266.5C322 271.5 324.333 274 329 274Z" fill="#AD9DCB"/>
<path d="M166.025 289.283C159.683 289.283 156.513 291.877 156.513 297.066C156.513 291.877 153.342 289.283 147 289.283C153.342 289.283 156.513 286.689 156.513 281.5C156.513 286.689 159.683 289.283 166.025 289.283Z" fill="#AD9DCB"/>
<path d="M154.025 361.283C147.683 361.283 144.513 363.877 144.513 369.066C144.513 363.877 141.342 361.283 135 361.283C141.342 361.283 144.513 358.689 144.513 353.5C144.513 358.689 147.683 361.283 154.025 361.283Z" fill="#AD9DCB"/>
<path d="M464.512 268.08C464.512 278.453 467.105 283.64 472.292 283.64C467.105 283.64 464.512 288.827 464.512 299.2C464.512 288.827 461.918 283.64 456.732 283.64C461.918 283.64 464.512 278.453 464.512 268.08Z" fill="#AD9DCB"/>
<path d="M227.301 155.938C230.524 155.938 233.136 153.326 233.136 150.104C233.136 146.881 230.524 144.269 227.301 144.269C224.078 144.269 221.466 146.881 221.466 150.104C221.466 153.326 224.078 155.938 227.301 155.938Z" fill="#E0E8EA"/>
<path d="M137.755 196.116C138.829 196.116 139.7 195.245 139.7 194.171C139.7 193.096 138.829 192.226 137.755 192.226C136.681 192.226 135.81 193.096 135.81 194.171C135.81 195.245 136.681 196.116 137.755 196.116Z" class="svg-white"/>
<path d="M227.225 258.355C228.299 258.355 229.17 257.484 229.17 256.41C229.17 255.336 228.299 254.465 227.225 254.465C226.151 254.465 225.28 255.336 225.28 256.41C225.28 257.484 226.151 258.355 227.225 258.355Z" fill="#E0E8EA"/>
<path d="M324.474 120.261C326.622 120.261 328.364 118.52 328.364 116.371C328.364 114.223 326.622 112.481 324.474 112.481C322.325 112.481 320.584 114.223 320.584 116.371C320.584 118.52 322.325 120.261 324.474 120.261Z" fill="#AD9DCB"/>
<path d="M412.364 251.929C415.586 251.929 418.199 249.316 418.199 246.094C418.199 242.871 415.586 240.259 412.364 240.259C409.141 240.259 406.529 242.871 406.529 246.094C406.529 249.316 409.141 251.929 412.364 251.929Z" fill="#E0E8EA"/>
<path d="M285.574 322.54C287.722 322.54 289.464 320.798 289.464 318.65C289.464 316.501 287.722 314.76 285.574 314.76C283.426 314.76 281.684 316.501 281.684 318.65C281.684 320.798 283.426 322.54 285.574 322.54Z" fill="#AD9DCB"/>
<path d="M198.05 382.834C199.125 382.834 199.995 381.964 199.995 380.889C199.995 379.815 199.125 378.944 198.05 378.944C196.976 378.944 196.105 379.815 196.105 380.889C196.105 381.964 196.976 382.834 198.05 382.834Z" class="svg-white"/>
<path d="M363.373 320.595C364.447 320.595 365.318 319.724 365.318 318.65C365.318 317.576 364.447 316.705 363.373 316.705C362.299 316.705 361.428 317.576 361.428 318.65C361.428 319.724 362.299 320.595 363.373 320.595Z" fill="#AD9DCB"/>
<path d="M347.505 404.131C350.728 404.131 353.34 401.518 353.34 398.296C353.34 395.073 350.728 392.461 347.505 392.461C344.283 392.461 341.67 395.073 341.67 398.296C341.67 401.518 344.283 404.131 347.505 404.131Z" fill="#E0E8EA"/>
</g>
<g filter="url(#filter0_d_1010_2989)">
<path d="M346.616 80.139L494.736 209.01L396.302 443.791L140.374 478.938L59.7516 296.175L104.75 59.5195L346.616 80.139Z" stroke="#5C91FC" stroke-opacity="0.5" stroke-width="10" stroke-linecap="round" shape-rendering="crispEdges"/>
</g>
<defs>
<filter id="filter0_d_1010_2989" x="0.54895" y="0.154297" width="554.195" height="538.25" filterUnits="userSpaceOnUse" color-interpolation-filters="sRGB">
<feFlood flood-opacity="0" result="BackgroundImageFix"/>
<feColorMatrix in="SourceAlpha" type="matrix" values="0 0 0 0 0 0 0 0 0 0 0 0 0 0 0 0 0 0 127 0" result="hardAlpha"/>
<feMorphology radius="4" operator="dilate" in="SourceAlpha" result="effect1_dropShadow_1010_2989"/>
<feOffset/>
<feGaussianBlur stdDeviation="25"/>
<feComposite in2="hardAlpha" operator="out"/>
<feColorMatrix type="matrix" values="0 0 0 0 1 0 0 0 0 1 0 0 0 0 1 0 0 0 0.25 0"/>
<feBlend mode="normal" in2="BackgroundImageFix" result="effect1_dropShadow_1010_2989"/>
<feBlend mode="normal" in="SourceGraphic" in2="effect1_dropShadow_1010_2989" result="shape"/>
</filter>
</defs>
</svg>
