<svg width="385" height="169" viewBox="0 0 385 169" fill="none" xmlns="http://www.w3.org/2000/svg">
    <path
        d="M6.5 5.00001V163.454H5L5.5 87M5.5 87V5.00001L121.5 5M5.5 87L106.5 87M121.5 5V87M121.5 5L170.5 4.99988C213.864 4.99988 232.527 13.4976 232.527 45.9891C232.527 66.3579 224.406 77.297 209.027 82.6298M121.5 166V87M121.5 87L170.5 86.9782C186.2 87.1741 199.12 86.0654 209.027 82.6298M235.027 166L209.027 82.6298"
        stroke-linejoin="round" />
    <path
        d="M308 6C347.14 6 379.5 40.3357 379.5 83.5C379.5 126.664 347.14 161 308 161C268.86 161 236.5 126.664 236.5 83.5C236.5 40.3357 268.86 6 308 6Z"
        />
</svg>