<svg width="800" height="800" viewBox="0 0 400 400" xmlns="http://www.w3.org/2000/svg">
  <defs>
    <radialGradient id="opacityGradient" cx="50%" cy="50%" r="40%">
      <stop offset="0%" style="stop-color:white;stop-opacity:1" />
      <stop offset="30%" style="stop-color:white;stop-opacity:0.95" />
      <stop offset="50%" style="stop-color:white;stop-opacity:0.8" />
      <stop offset="70%" style="stop-color:white;stop-opacity:0.5" />
      <stop offset="85%" style="stop-color:white;stop-opacity:0.2" />
      <stop offset="95%" style="stop-color:white;stop-opacity:0.05" />
      <stop offset="100%" style="stop-color:white;stop-opacity:0" />
    </radialGradient>
    <mask id="radialMask">
      <rect width="400" height="400" fill="url(#opacityGradient)" />
    </mask>
  </defs>
  
  <g class="grid-color" stroke-width="1" fill="none" mask="url(#radialMask)">
    <line x1="33.33" y1="0" x2="33.33" y2="400" />
    <line x1="66.67" y1="0" x2="66.67" y2="400" />
    <line x1="100" y1="0" x2="100" y2="400" />
    <line x1="133.33" y1="0" x2="133.33" y2="400" />
    <line x1="166.67" y1="0" x2="166.67" y2="400" />
    <line x1="200" y1="0" x2="200" y2="400" />
    <line x1="233.33" y1="0" x2="233.33" y2="400" />
    <line x1="266.67" y1="0" x2="266.67" y2="400" />
    <line x1="300" y1="0" x2="300" y2="400" />
    <line x1="333.33" y1="0" x2="333.33" y2="400" />
    <line x1="366.67" y1="0" x2="366.67" y2="400" />
  </g>
  
  <g class="grid-color" stroke-width="1" fill="none" mask="url(#radialMask)">
    <line x1="0" y1="33.33" x2="400" y2="33.33" />
    <line x1="0" y1="66.67" x2="400" y2="66.67" />
    <line x1="0" y1="100" x2="400" y2="100" />
    <line x1="0" y1="133.33" x2="400" y2="133.33" />
    <line x1="0" y1="166.67" x2="400" y2="166.67" />
    <line x1="0" y1="200" x2="400" y2="200" />
    <line x1="0" y1="233.33" x2="400" y2="233.33" />
    <line x1="0" y1="266.67" x2="400" y2="266.67" />
    <line x1="0" y1="300" x2="400" y2="300" />
    <line x1="0" y1="333.33" x2="400" y2="333.33" />
    <line x1="0" y1="366.67" x2="400" y2="366.67" />
  </g>
</svg>
