<svg width="24" height="33" viewBox="0 0 24 33" xmlns="http://www.w3.org/2000/svg">
<path d="M0.515625 31.627L9.75391 10.748L8.85547 8.28711C8.36068 6.99805 7.82031 6.09961 7.23438 5.5918C6.66146 5.08398 5.82812 4.83008 4.73438 4.83008C4.31771 4.83008 3.93359 4.85612 3.58203 4.9082C3.23047 4.96029 2.91797 5.01888 2.64453 5.08398V1.31445C2.89193 1.24935 3.17839 1.19727 3.50391 1.1582C3.82943 1.10612 4.17448 1.06706 4.53906 1.04102C4.90365 1.00195 5.24219 0.982422 5.55469 0.982422C7.05208 0.982422 8.26953 1.23633 9.20703 1.74414C10.1576 2.23893 10.9453 2.98763 11.5703 3.99023C12.1953 4.97982 12.7747 6.2168 13.3086 7.70117L19.5781 25.1426C19.8776 25.9368 20.1576 26.5553 20.418 26.998C20.6914 27.4408 20.9714 27.7467 21.2578 27.916C21.5573 28.0853 21.8763 28.1699 22.2148 28.1699C22.4102 28.1699 22.625 28.1504 22.8594 28.1113C23.0938 28.0723 23.3021 28.0267 23.4844 27.9746V31.4902C23.2891 31.5814 23.0286 31.666 22.7031 31.7441C22.3776 31.8353 22.0391 31.9004 21.6875 31.9395C21.3359 31.9915 20.9974 32.0176 20.6719 32.0176C19.8255 32.0176 19.1029 31.8743 18.5039 31.5879C17.918 31.3014 17.4232 30.8717 17.0195 30.2988C16.6289 29.7259 16.2839 29.0293 15.9844 28.209L13.4648 21.0996C13.3086 20.6439 13.1458 20.1751 12.9766 19.6934C12.8203 19.2116 12.6641 18.7363 12.5078 18.2676C12.3516 17.7988 12.2083 17.3496 12.0781 16.9199C11.9609 16.4902 11.8633 16.1126 11.7852 15.7871H11.668C11.4466 16.5814 11.1732 17.4342 10.8477 18.3457C10.5352 19.2572 10.2096 20.123 9.87109 20.9434L5.28125 31.627H0.515625Z"/>
</svg>
