<svg width="2400" height="900" viewBox="0 0 2400 900" fill="none" xmlns="http://www.w3.org/2000/svg">
<path d="M1517.43 741.036V213.551L1408.86 454.997C1408.84 455.039 1408.83 455.083 1408.81 455.125L1274.87 743.167C1273.07 747.025 1269.21 749.498 1264.96 749.509L1260.49 749.52C1256.21 749.53 1252.31 747.042 1250.51 743.153L1117.49 455.15L1003.5 211.702V738.556C1003.5 744.611 998.589 749.52 992.536 749.52H256.961C250.908 749.52 246.001 744.611 246 738.556V159.964C246 153.909 250.907 149 256.961 149C263.014 149 267.921 153.909 267.921 159.964V727.592H981.576V461.464H624.75C618.697 461.464 613.79 456.555 613.79 450.5C613.79 444.445 618.697 439.536 624.75 439.536H981.576V173.411H624.75C618.697 173.411 613.79 168.502 613.79 162.448C613.79 156.393 618.697 151.484 624.75 151.484H992.536L993.328 151.513C997.264 151.797 1000.77 154.185 1002.46 157.797L1134.38 439.536H1391.78L1518.39 157.951C1520.16 154.015 1524.07 151.484 1528.39 151.484H1530.82C1534.15 151.484 1537.29 152.993 1539.37 155.585L1985.08 710.904V159.964C1985.08 153.909 1989.99 149 1996.04 149C2002.09 149 2007 153.909 2007 159.964V739.041C2007 745.096 2002.09 750.005 1996.04 750.005H1993.6C1990.28 750.005 1987.14 748.496 1985.06 745.904L1539.35 190.581V741.036C1539.35 747.091 1534.44 752 1528.39 752C1522.33 752 1517.43 747.091 1517.43 741.036ZM1262.72 717.296L1381.68 461.464H1144.55L1262.72 717.296Z" fill="#070000"/>
<path d="M2051.08 163.965V155.091H2092.89V163.965H2077.31V206H2066.67V163.965H2051.08Z" fill="#B7B7B7"/>
<path d="M2099.78 155.091H2113.05L2127.07 189.295H2127.67L2141.69 155.091H2154.96V206H2144.52V172.864H2144.1L2130.92 205.751H2123.81L2110.64 172.74H2110.22V206H2099.78V155.091Z" fill="#B7B7B7"/>
</svg>
