<svg viewBox="-10 0 850 175" xmlns="http://www.w3.org/2000/svg">
<path d="M204.333 8.67949L207.05 7.40704L206.241 5.67949H204.333V8.67949ZM6 8.00001V5.00001H0V8.00001H6ZM3 166.321H0V169.321H3V166.321ZM315.549 87.5L318.269 88.7652L318.277 88.7479L318.285 88.7306L315.549 87.5ZM351 8.67949V5.67949H349.06L348.264 7.44893L351 8.67949ZM277.667 166.321L274.943 167.579L275.75 169.324L277.673 169.321L277.667 166.321ZM278.889 166.318L278.895 169.318L280.804 169.314L281.609 167.583L278.889 166.318ZM479 166.454V169.454H482V166.454H479ZM204.333 166.321V169.321H207.333V166.321H204.333ZM351.667 8.67949L354.012 6.80891L353.111 5.67949H351.667V8.67949ZM477.5 166.454L475.155 168.325L476.055 169.454H477.5V166.454ZM478 8.00001L478 5.00001L475 5.00001V8.00001H478ZM674.5 85.6298L673.517 82.7954L673.517 82.7954L674.5 85.6298ZM635.973 7.99988L635.973 4.99988L635.973 4.99988L635.973 7.99988ZM635.973 89.9782L636.01 86.9785L635.991 86.9782L635.971 86.9782L635.973 89.9782ZM826.92 60L829.92 60.002L829.92 59.9216L829.916 59.8414L826.92 60ZM826.882 118L829.875 118.202L829.882 118.102L829.882 118.002L826.882 118ZM698.118 118L695.118 118.006L695.118 118.104L695.125 118.202L698.118 118ZM698 60V57H694.994L695 60.0061L698 60ZM698.08 60V63H700.925L701.076 60.1586L698.08 60ZM756.5 171.755L756.746 168.765L756.746 168.765L756.5 171.755ZM699.184 51.5L696.248 50.8872L699.184 51.5ZM204.333 8.67949V5.67949H103.667V8.67949V11.6795H204.333V8.67949ZM3 8.00001H0V166.321H3H6V8.00001H3ZM315.549 87.5V84.5H241.25V87.5V90.5H315.549V87.5ZM351 167H354V8.67949H351H348V167H351ZM277.667 166.321L280.39 165.062L243.974 86.2418L241.25 87.5L238.527 88.7583L274.943 167.579L277.667 166.321ZM241.25 87.5L243.967 86.2276L207.05 7.40704L204.333 8.67949L201.617 9.95195L238.534 88.7725L241.25 87.5ZM351 8.67949L348.264 7.44893L312.813 86.2694L315.549 87.5L318.285 88.7306L353.736 9.91006L351 8.67949ZM315.549 87.5L312.829 86.2348L276.169 165.053L278.889 166.318L281.609 167.583L318.269 88.7652L315.549 87.5ZM479 166.454H482V8.00001H479H476V166.454H479ZM204.333 166.321V163.321H3V166.321V169.321H204.333V166.321ZM204.333 166.321H207.333V87.5H204.333H201.333V166.321H204.333ZM204.333 87.5V84.5H103.667V87.5V90.5H204.333V87.5ZM204.333 87.5H207.333V8.67949H204.333H201.333V87.5H204.333ZM277.667 166.321L277.673 169.321L278.895 169.318L278.889 166.318L278.883 163.318L277.66 163.321L277.667 166.321ZM351.667 8.67949V5.67949H351V8.67949V11.6795H351.667V8.67949ZM479 166.454V163.454H477.5V166.454V169.454H479V166.454ZM477.5 166.454L479.845 164.584L354.012 6.80891L351.667 8.67949L349.321 10.5501L475.155 168.325L477.5 166.454ZM477.5 166.454L480.5 166.474L481 90.0196L478 90L475 89.9804L474.5 166.435L477.5 166.454ZM478 90H481V8.00001H478H475V90H478ZM594 8L594 5L478 5.00001L478 8.00001L478 11L594 11L594 8ZM579 90L579 87L478 87L478 90L478 93L579 93L579 90ZM594 169H597V90H594H591V169H594ZM594 90H597V8H594H591V90H594ZM700.5 169L703.364 168.107L677.364 84.7366L674.5 85.6298L671.636 86.5229L697.636 169.893L700.5 169ZM635.973 7.99988L635.973 4.99988L594 5L594 8L594 11L635.973 10.9999L635.973 7.99988ZM635.973 89.9782L635.971 86.9782L593.998 87L594 90L594.002 93L635.974 92.9782L635.973 89.9782ZM635.973 89.9782L635.935 92.978C651.725 93.175 665.07 92.0751 675.483 88.4642L674.5 85.6298L673.517 82.7954C664.115 86.0556 651.622 87.1732 636.01 86.9785L635.973 89.9782ZM674.5 85.6298L675.483 88.4642C683.634 85.6377 690.117 81.2272 694.515 74.6084C698.894 68.0201 701 59.5559 701 48.9891H698H695C695 58.791 693.045 65.9808 689.518 71.2874C686.012 76.5636 680.745 80.2891 673.517 82.7954L674.5 85.6298ZM698 48.9891H701C701 32.1214 696.1 20.6732 684.816 13.7528C673.944 7.08503 657.661 4.99988 635.973 4.99988V7.99988V10.9999C657.649 10.9999 672.379 13.1636 681.68 18.8675C690.568 24.3189 695 33.3653 695 48.9891H698ZM762.5 3V6C795.629 6 822.337 30.1854 823.924 60.1586L826.92 60L829.916 59.8414C828.142 26.328 798.453 0 762.5 0V3ZM826.92 60L823.92 59.998L823.882 117.998L826.882 118L829.882 118.002L829.92 60.002L826.92 60ZM826.882 118L823.889 117.798C821.984 146.076 795.516 169 762.5 169V172V175C798.092 175 827.721 150.177 829.875 118.202L826.882 118ZM698.118 118L701.118 117.994L701 59.9939L698 60L695 60.0061L695.118 118.006L698.118 118ZM698 60V63H698.08V60V57H698V60ZM762.5 172V169C760.559 169 758.64 168.92 756.746 168.765L756.5 171.755L756.254 174.744C758.311 174.914 760.395 175 762.5 175V172ZM756.5 171.755L756.746 168.765C726.435 166.272 702.904 144.413 701.111 117.798L698.118 118L695.125 118.202C697.151 148.287 723.521 172.053 756.254 174.744L756.5 171.755ZM698.08 60L701.076 60.1586C701.221 57.4205 701.574 54.7343 702.121 52.1128L699.184 51.5L696.248 50.8872C695.639 53.8058 695.245 56.7957 695.084 59.8414L698.08 60ZM699.184 51.5L702.121 52.1128C707.574 25.9826 732.406 6 762.5 6V3V0C729.806 0 702.328 21.7462 696.248 50.8872L699.184 51.5Z"/>
</svg>
