<svg class=" " viewBox="0 0 1600 800">
    <path
        d="M4,571.796C4,571.796,39.437,568.243,56.281,563.774C72.931,559.356,90.755,553.618,104.523,545.259C116.988,537.69,130.11,527.184,136.231,517.172C140.937,509.475,143.089,501.478,142.462,492.929C141.72,482.811,135.83,469.887,128.874,460.606C121.591,450.888,110.515,442.771,99.044,436.364C86.59,429.408,71.181,424.449,56.281,421.412C40.89,418.274,8.04,418.233,8.04,418.233"
        stroke-width="2" fill="none" stroke-linecap="round" stroke-miterlimit="4"></path>
    <path
        d="M1410.98,4C1410.98,4,1447.433,42.884,1456.955,64.646C1465.799,84.861,1470.352,109.531,1468.466,129.293C1466.789,146.868,1458.149,167.987,1449.856,177.778C1444.495,184.106,1438.531,186.265,1431.156,188.778C1422.141,191.849,1413.198,193.575,1398.995,192.82C1370.315,191.297,1311.653,177.159,1270.352,162.542C1229.012,147.911,1175.304,121.961,1151.079,105.051C1138.653,96.377,1131.909,89.565,1126.061,80.808C1121.002,73.233,1117.058,64.739,1116.479,56.566C1115.912,48.573,1118.019,40.163,1122.281,32.323C1127.62,22.503,1149.257,4,1149.257,4"
        stroke-width="2" fill="none" stroke-linecap="round" stroke-miterlimit="4"></path>
    <path
        d="M4,615.611C4,615.611,62.487,605.72,88.442,598.138C111.633,591.365,134.03,583.87,152.764,573.608C169.365,564.514,186.13,554.391,196.189,541.414C205.224,529.758,211.905,515.221,212.606,501.01C213.361,485.709,207.187,467.656,198.275,452.525C187.939,434.976,168.993,416.21,150.58,404.04C132.336,391.983,110.897,384.954,88.442,379.623C63.748,373.761,8.04,372.223,8.04,372.223"
        stroke-width="2" fill="none" stroke-linecap="round" stroke-miterlimit="4"></path>
    <path
        d="M1596,273.14C1596,273.14,1568.724,296.786,1551.759,304.443C1533.023,312.899,1509.004,318.089,1487.437,319.651C1466.12,321.195,1444.261,318.643,1423.116,314.006C1401.363,309.236,1387.387,304.445,1358.794,290.948C1292.903,259.844,1088.735,140.274,1047.173,105.051C1034.876,94.629,1031.152,89.424,1026.646,80.808C1022.642,73.15,1020.029,64.626,1020.171,56.566C1020.314,48.464,1023.228,40.277,1027.569,32.323C1032.823,22.697,1051.569,4,1051.569,4"
        stroke-width="2" fill="none" stroke-linecap="round" stroke-miterlimit="4"></path>
    <path
        d="M1596,151.159C1596,151.159,1569.265,97.393,1553.051,72.727C1537.046,48.378,1499.487,4,1499.487,4"
        stroke-width="2" fill="none" stroke-linecap="round" stroke-miterlimit="4"></path>
    <path
        d="M1596,671.965C1596,671.965,1550.34,656.55,1530.078,646.465C1511.197,637.066,1492.435,625.907,1477.894,614.141C1465.472,604.09,1453.582,593.483,1446.875,581.818C1441.064,571.712,1436.492,560.046,1437.62,549.495C1438.798,538.477,1446.25,526.101,1454.937,517.172C1464.739,507.095,1480.885,499.29,1495.477,493.992C1510.426,488.565,1527.274,485.914,1543.719,485.358C1560.755,484.783,1596,491.11,1596,491.11"
        stroke-width="2" fill="none" stroke-linecap="round" stroke-miterlimit="4"></path>
    <path
        d="M4,650.077C4,650.077,84.507,633.211,119.448,622.222C149.659,612.721,179.165,602.814,202.138,589.899C220.904,579.349,238.369,568.361,249.246,553.963C259.059,540.974,265.259,523.027,266.903,509.091C268.255,497.625,265.621,487.893,262.347,476.768C258.524,463.778,252.97,450.197,243.697,436.364C231.484,418.143,212.344,394.274,191.151,379.798C168.98,364.654,141.157,355.502,112.563,348.747C80.7,341.219,8.04,339.554,8.04,339.554"
        stroke-width="2" fill="none" stroke-linecap="round" stroke-miterlimit="4"></path>
    <path
        d="M1596,718.589C1596,718.589,1489.752,674.773,1451.937,654.545C1425.754,640.54,1407.047,628.421,1388.066,614.141C1371.031,601.327,1353.377,586.141,1342.539,573.737C1335.032,565.146,1330.176,558.559,1326.261,549.495C1322.09,539.837,1318.379,530.528,1318.893,517.172C1319.753,494.792,1346.013,452.202,1346.486,428.283C1346.804,412.249,1345.41,403.711,1335.679,387.879C1313.456,351.723,1233.75,288.646,1173.12,242.424C1105.868,191.155,978.378,134.78,947.579,96.97C935.205,81.779,931.633,68.266,931.95,56.566C932.198,47.4,937.479,40.254,942.869,32.323C949.436,22.66,970.366,4,970.366,4"
        stroke-width="2" fill="none" stroke-linecap="round" stroke-miterlimit="4"></path>
    <path d="M1596,31.742L1569.079,4" stroke-width="2" fill="none"
        stroke-linecap="round" stroke-miterlimit="4"></path>
    <path
        d="M4,682.253C4,682.253,116.302,654.177,160.804,639.436C194.822,628.167,224.577,618.709,249.246,604.806C269.563,593.357,289.082,581.386,300.405,565.657C310.505,551.626,315.87,532.743,317.029,517.172C318.066,503.231,313.971,490.568,309.601,476.768C304.621,461.037,296.013,443.682,287.278,428.283C278.567,412.927,268.267,397.041,257.286,384.49C247.368,373.152,239.267,364.295,225.126,355.486C205.096,343.01,175.476,330.586,144.446,323.232C105.496,314.002,8.04,311.604,8.04,311.604"
        stroke-width="2" fill="none" stroke-linecap="round" stroke-miterlimit="4"></path>
    <path
        d="M1595.55,759.596C1595.55,759.596,1418.962,677.489,1362.306,646.465C1328.426,627.912,1305.87,614.25,1283.293,597.98C1264.708,584.585,1247.593,573.039,1235.183,557.576C1223.606,543.151,1214.867,529.375,1209.921,509.091C1202.806,479.912,1219.527,430.235,1210.144,395.96C1201.173,363.19,1179.343,334.574,1157.294,307.071C1133.759,277.712,1107.781,252.719,1071.541,226.263C1022.365,190.363,920.22,147.715,881.723,121.212C863.215,108.47,850.505,98.623,843.38,88.889C839.17,83.139,837.162,78.747,836.672,72.727C836.088,65.546,837.466,56.988,842.373,48.485C850.296,34.757,889.653,4,889.653,4"
        stroke-width="2" fill="none" stroke-linecap="round" stroke-miterlimit="4"></path>
    <path
        d="M4,715.658C4,715.658,249.627,646.413,305.528,617.389C329.709,604.833,342.426,596.563,353.03,581.818C362.866,568.141,368.194,549.611,369.038,533.333C369.87,517.285,364.488,502.493,358.437,484.848C350.496,461.694,334.226,430.231,321.608,407.725C311.124,389.025,301.118,371.99,289.447,358.257C279.428,346.468,271.765,337.806,257.286,328.984C235.96,315.99,203.324,303.513,168.844,296.096C123.781,286.402,8.04,285.184,8.04,285.184"
        stroke-width="2" fill="none" stroke-linecap="round" stroke-miterlimit="4"></path>
    <path
        d="M1577.894,796C1577.894,796,1281.113,650.21,1206.03,606.061C1171.752,585.905,1150.847,575.972,1133.753,557.576C1120.067,542.847,1110.323,528.825,1106.153,509.091C1100.64,483.008,1116.129,437.474,1115.976,412.121C1115.877,395.745,1114.892,385.554,1111.389,371.717C1107.418,356.03,1099.93,338.246,1091.866,323.232C1084.053,308.687,1077.176,296.936,1064.047,282.828C1044.703,262.043,1016.884,238.139,980.905,216.308C927.412,183.852,808.905,146.764,765.615,121.212C745,109.044,730.318,98.867,723.14,88.889C719.082,83.247,717.324,78.585,717.659,72.727C718.079,65.385,721.962,56.716,729.107,48.485C741.455,34.26,795.98,4.459,795.98,4.459"
        stroke-width="2" fill="none" stroke-linecap="round" stroke-miterlimit="4"></path>
    <path
        d="M4,29.728C4,29.728,147.916,32.137,217.085,37.313C283.101,42.253,349.82,44.426,410.05,59.367C466.388,73.342,509.715,102.166,568.323,121.212C638.5,144.018,739.99,162.404,804.02,182.884C849.349,197.382,884.882,208.172,918.153,226.263C947.6,242.274,976.127,260.935,995.276,282.828C1012.078,302.038,1024.252,325.959,1030.532,347.475C1036.042,366.355,1036.749,381.876,1034.422,404.04C1030.952,437.088,1001.26,500.182,999.845,525.253C999.22,536.323,1000.655,541.845,1003.884,549.495C1007.397,557.816,1012.903,565.568,1021.106,572.926C1032.464,583.116,1046.333,589.721,1069.347,600.894C1120.58,625.768,1250.618,667.263,1326.131,703.03C1389.036,732.825,1493.858,796,1493.858,796"
        stroke-width="2" fill="none" stroke-linecap="round" stroke-miterlimit="4"></path>
    <path
        d="M4,755.386C4,755.386,73.284,727.002,119.889,711.111C188.569,687.692,328.365,655.827,377.889,633.473C399.638,623.656,412.44,617.397,422.032,606.061C429.898,596.765,434.319,586.19,435.298,573.737C436.561,557.675,430.141,540.104,421.904,517.172C407.711,477.658,370.171,401.467,345.729,362.317C329.215,335.865,314.467,314.234,297.487,300.037C284.605,289.265,272.203,284.546,257.286,279.054C240.456,272.858,225.565,269.49,201.005,266.204C156.084,260.193,8.04,258.181,8.04,258.181"
        stroke-width="2" fill="none" stroke-linecap="round" stroke-miterlimit="4"></path>
    <path
        d="M666.749,796C666.749,796,661.428,713.394,670.163,694.949C674.464,685.868,681.315,682.426,688.593,678.788C696.312,674.929,706.16,673.427,715.578,673.112C725.8,672.771,738.145,674.046,747.739,677.661C756.779,681.067,763.395,684.319,771.859,693.47C788.902,711.896,828.141,795.962,828.141,795.962"
        stroke-width="2" fill="none" stroke-linecap="round" stroke-miterlimit="4"></path>
    <path
        d="M4,62.893C4,62.893,101.491,65.161,144.724,70.835C182.348,75.773,219.906,82.499,249.246,92.525C272.215,100.374,289.32,107.658,308.04,121.212C329.833,136.992,353.033,173.125,369.849,184.784C379.014,191.139,381.228,192.69,393.97,195.355C433.797,203.685,587.961,191.03,651.256,195.177C688.527,197.618,711.079,201.354,739.698,206.877C767.3,212.203,795.113,218.825,820.101,227.382C843.074,235.25,865.383,244.098,884.422,255.353C901.761,265.603,918.116,276.709,930.464,290.909C942.56,304.818,953.02,322.634,958.117,339.394C962.874,355.035,963.428,372.597,961.625,387.879C959.936,402.185,955.187,414.595,948.744,428.484C941.071,445.022,928.062,464.729,916.583,479.602C906.453,492.728,896.388,503.794,884.422,513.918C872.3,524.174,861.867,532.923,844.221,540.638C816.887,552.589,769.434,562.264,731.658,567.916C694.385,573.493,647.137,575.454,619.095,574.598C602.291,574.086,593.518,573.824,578.894,569.739C559.587,564.345,534.91,555.769,514.573,540.662C489.622,522.127,463.252,487.775,444.704,460.606C428.41,436.737,418.078,416.405,406.802,387.879C392.21,350.966,383.915,283.64,369.849,255.62C362.311,240.603,356.822,230.748,345.729,224.413C333.412,217.381,320.431,219.434,297.487,218.357C241.105,215.711,4,227.481,4,227.481"
        stroke-width="2" fill="none" stroke-linecap="round" stroke-miterlimit="4"></path>
    <path
        d="M34.372,796C34.372,796,68.99,770.813,91.409,759.596C119.798,745.392,157.883,732.042,192.965,721.397C229.175,710.41,269.266,701.201,305.528,695.11C338.745,689.532,374.156,685.121,402.01,685.101C423.282,685.086,441.115,686.117,458.291,690.859C474.092,695.221,488.628,701.539,501.671,711.111C515.622,721.351,529.762,736.752,538.662,751.515C546.928,765.226,554.582,796,554.582,796"
        stroke-width="2" fill="none" stroke-linecap="round" stroke-miterlimit="4"></path>
    <path
        d="M937.861,796C937.861,796,925.851,759.888,927.941,743.434C929.94,727.7,938.475,710.868,948.744,699.161C958.889,687.595,973.24,679.162,988.945,673.398C1007.254,666.677,1030.114,664.876,1053.266,664.749C1080.396,664.6,1111.833,669.538,1141.709,675.653C1173.424,682.145,1206.403,692.027,1238.191,703.515C1270.743,715.279,1304.396,729.867,1334.673,745.732C1363.54,760.858,1416.138,796,1416.138,796"
        stroke-width="2" fill="none" stroke-linecap="round" stroke-miterlimit="4"></path>
    <path
        d="M4,110.783C4,110.783,71.461,113.21,95.134,121.212C112.134,126.959,133.122,136.938,135.76,145.455C137.378,150.678,132.641,157.374,128.308,161.616C123.075,166.738,115.495,169.116,104.523,171.974C82.87,177.613,4,181.943,4,181.943"
        stroke-width="2" fill="none" stroke-linecap="round" stroke-miterlimit="4"></path>
    <path
        d="M133.279,796C133.279,796,186.307,764.895,217.085,755.043C251.128,744.146,294.978,736.025,329.648,736.3C359.499,736.536,394.057,743.809,412.86,751.515C423.821,756.007,429.884,760.669,436.635,767.677C443.914,775.233,454.378,796,454.378,796"
        stroke-width="2" fill="none" stroke-linecap="round" stroke-miterlimit="4"></path>
    <path
        d="M482.412,287.213C494.926,274.474,513.186,265.88,532.384,258.586C555.063,249.97,583.339,244.842,611.055,242.151C641.424,239.202,677.018,239.776,707.538,243.342C735.74,246.637,763.812,252.652,787.94,261.345C809.387,269.073,830.178,278.366,845.946,290.909C860.139,302.199,873.037,316.166,879.855,331.313C886.426,345.915,889.468,363.338,887.064,379.798C884.336,398.481,873.722,420.156,860.302,436.998C845.408,455.687,822.258,472.74,798.998,484.848C774.361,497.673,744.734,505.581,715.578,510.392C684.91,515.452,647.748,516.958,619.095,513.277C595.218,510.21,574.626,504.52,554.774,494.403C534.329,483.984,513.789,467.864,498.492,450.973C483.882,434.838,470.861,415.897,464.141,395.96C457.419,376.012,454.232,350.282,458.181,331.313C461.658,314.613,470.715,299.12,482.412,287.213"
        stroke-width="2" fill="none" stroke-linecap="round" stroke-miterlimit="4"></path>
    <path
        d="M1032.976,796C1032.976,796,1028.21,776.103,1030.431,767.677C1032.556,759.618,1038.37,752.229,1045.226,746.284C1053.286,739.295,1065.746,733.782,1077.387,730.233C1089.749,726.463,1101.016,724.67,1117.588,725.019C1144.661,725.589,1194.34,734.794,1224.199,743.434C1247.057,750.049,1265.041,758.433,1282.79,767.677C1298.865,776.048,1326.633,795.651,1326.633,795.651"
        stroke-width="2" fill="none" stroke-linecap="round" stroke-miterlimit="4"></path>
    <path
        d="M557.124,323.232C567.226,315.177,581.238,308.566,594.975,303.604C609.758,298.264,627.041,294.857,643.216,293.078C659.204,291.32,675.473,291.148,691.457,292.871C707.636,294.615,725.554,298.371,739.698,303.611C751.847,308.111,762.697,313.355,771.859,320.787C780.816,328.052,789.8,338.201,794.26,347.475C798.018,355.287,799.762,363.149,799.131,371.717C798.388,381.815,794.429,394.111,787.51,404.04C779.14,416.051,763.51,428.154,749.031,436.364C734.244,444.748,716.782,450.02,699.497,453.493C681.569,457.095,661.161,458.454,643.216,457.077C626.421,455.787,609.906,452.632,594.975,446.45C580.14,440.307,564.367,430.77,553.874,420.202C544.589,410.851,536.507,399.786,533.553,387.879C530.509,375.613,532.008,358.639,536.583,347.475C540.634,337.588,548.403,330.186,557.124,323.232"
        stroke-width="2" fill="none" stroke-linecap="round" stroke-miterlimit="4"></path>
</svg>